<svg xmlns="http://www.w3.org/2000/svg" xmlns:xlink="http://www.w3.org/1999/xlink" contentStyleType="text/css" data-diagram-type="STATE" height="582px" preserveAspectRatio="none" style="width:420px;height:582px;background:#FFFFFF;" version="1.1" viewBox="0 0 420 582" width="420px" zoomAndPan="magnify"><?plantuml 1.2026.5?><defs/><g><g class="title" data-source-line="1"><text fill="#000000" font-family="'Noto Sans CJK SC'" font-size="14" font-weight="700" lengthAdjust="spacing" textLength="293.9987" x="59.6157" y="26.2399">&#38754;&#21521;&#39532;&#26469;&#35199;&#20122;&#30041;&#23398;&#29983;&#30340;&#27721;&#35821;&#32451;&#20064;&#24179;&#21488;&#26435;&#38480;&#29366;&#24577;&#22270;</text></g><g class="start_entity" data-qualified-name=".start." data-source-line="20" id="ent0001"><ellipse cx="183.23" cy="57.2719" fill="#222222" rx="10" ry="10" style="stroke:#222222;stroke-width:1;"/></g><g class="entity" data-qualified-name="..." data-source-line="20" id="ent0002"><rect fill="#F1F1F1" height="50" rx="12.5" ry="12.5" style="stroke:#181818;stroke-width:0.5;" width="61.9998" x="152.23" y="128.2719"/><line style="stroke:#181818;stroke-width:0.5;" x1="152.23" x2="214.2298" y1="158.5438" y2="158.5438"/><text fill="#000000" font-family="'Noto Sans CJK SC'" font-size="14" lengthAdjust="spacing" textLength="41.9998" x="162.23" y="149.5118">&#26410;&#30331;&#24405;</text></g><g class="entity" data-qualified-name="...." data-source-line="21" id="ent0004"><rect fill="#F1F1F1" height="50" rx="12.5" ry="12.5" style="stroke:#181818;stroke-width:0.5;" width="75.9998" x="145.23" y="258.2719"/><line style="stroke:#181818;stroke-width:0.5;" x1="145.23" x2="221.2298" y1="288.5438" y2="288.5438"/><text fill="#000000" font-family="'Noto Sans CJK SC'" font-size="14" lengthAdjust="spacing" textLength="55.9998" x="155.23" y="279.5118">&#30331;&#24405;&#26657;&#39564;</text></g><g class="entity" data-qualified-name="...." data-source-line="22" id="ent0006"><rect fill="#F1F1F1" height="50" rx="12.5" ry="12.5" style="stroke:#181818;stroke-width:0.5;" width="75.9998" x="145.23" y="388.2719"/><line style="stroke:#181818;stroke-width:0.5;" x1="145.23" x2="221.2298" y1="418.5438" y2="418.5438"/><text fill="#000000" font-family="'Noto Sans CJK SC'" font-size="14" lengthAdjust="spacing" textLength="55.9998" x="155.23" y="409.5118">&#23398;&#29983;&#20250;&#35805;</text></g><g class="entity" data-qualified-name="...." data-source-line="23" id="ent0008"><rect fill="#F1F1F1" height="50" rx="12.5" ry="12.5" style="stroke:#181818;stroke-width:0.5;" width="75.9998" x="34.23" y="388.2719"/><line style="stroke:#181818;stroke-width:0.5;" x1="34.23" x2="110.2298" y1="418.5438" y2="418.5438"/><text fill="#000000" font-family="'Noto Sans CJK SC'" font-size="14" lengthAdjust="spacing" textLength="55.9998" x="44.23" y="409.5118">&#25945;&#24072;&#20250;&#35805;</text></g><g class="entity" data-qualified-name="....." data-source-line="24" id="ent0010"><rect fill="#F1F1F1" height="50" rx="12.5" ry="12.5" style="stroke:#181818;stroke-width:0.5;" width="89.9997" x="256.23" y="388.2719"/><line style="stroke:#181818;stroke-width:0.5;" x1="256.23" x2="346.2297" y1="418.5438" y2="418.5438"/><text fill="#000000" font-family="'Noto Sans CJK SC'" font-size="14" lengthAdjust="spacing" textLength="69.9997" x="266.23" y="409.5118">&#31649;&#29702;&#21592;&#20250;&#35805;</text></g><g class="entity" data-qualified-name="....." data-source-line="26" id="ent0013"><rect fill="#F1F1F1" height="50" rx="12.5" ry="12.5" style="stroke:#181818;stroke-width:0.5;" width="89.9997" x="16.23" y="518.2719"/><line style="stroke:#181818;stroke-width:0.5;" x1="16.23" x2="106.2297" y1="548.5438" y2="548.5438"/><text fill="#000000" font-family="'Noto Sans CJK SC'" font-size="14" lengthAdjust="spacing" textLength="69.9997" x="26.23" y="539.5118">&#21463;&#20445;&#25252;&#19994;&#21153;</text></g><g class="entity" data-qualified-name="...." data-source-line="28" id="ent0016"><rect fill="#F1F1F1" height="50" rx="12.5" ry="12.5" style="stroke:#181818;stroke-width:0.5;" width="75.9998" x="314.23" y="518.2719"/><line style="stroke:#181818;stroke-width:0.5;" x1="314.23" x2="390.2298" y1="548.5438" y2="548.5438"/><text fill="#000000" font-family="'Noto Sans CJK SC'" font-size="14" lengthAdjust="spacing" textLength="55.9998" x="324.23" y="539.5118">&#31649;&#29702;&#19994;&#21153;</text></g><!--link *start* to ???--><g class="link" data-entity-1="ent0001" data-entity-2="ent0002" data-link-type="dependency" data-source-line="20" id="lnk3"><path d="M183.23,67.6319 C183.23,81.5619 183.23,103.2219 183.23,122.9219" fill="none" id="*start*-to-&#26410;&#30331;&#24405;" style="stroke:#3C5488;stroke-width:1;"/><polygon fill="#3C5488" points="183.23,127.9219,187.23,118.9219,183.23,122.9219,179.23,118.9219,183.23,127.9219" style="stroke:#3C5488;stroke-width:1;stroke-linejoin:miter;stroke-miterlimit:10;"/></g><!--link ??? to ????--><g class="link" data-entity-1="ent0002" data-entity-2="ent0004" data-link-type="dependency" data-source-line="21" id="lnk5"><path d="M151.78,171.6919 C131.28,185.5419 110.08,206.2019 120.23,228.2719 C125.65,240.0519 131.1954,247.0252 141.1054,255.2652" fill="none" id="&#26410;&#30331;&#24405;-to-&#30331;&#24405;&#26657;&#39564;" style="stroke:#3C5488;stroke-width:1;"/><polygon fill="#3C5488" points="144.95,258.4619,140.5871,249.6321,141.1054,255.2652,135.4723,255.7835,144.95,258.4619" style="stroke:#3C5488;stroke-width:1;stroke-linejoin:miter;stroke-miterlimit:10;"/><text fill="#000000" font-family="'Noto Sans CJK SC'" font-size="13" lengthAdjust="spacing" textLength="78.0001" x="121.23" y="224.3519">&#25552;&#20132;&#36134;&#21495;&#23494;&#30721;</text></g><!--link ???? to ???--><g class="link" data-entity-1="ent0004" data-entity-2="ent0002" data-link-type="dependency" data-source-line="25" id="lnk12"><path d="M194.94,257.8419 C198.69,248.7719 202.36,238.2619 204.23,228.2719 C207.38,211.4719 204.0755,197.5779 198.0355,183.2779" fill="none" id="&#30331;&#24405;&#26657;&#39564;-to-&#26410;&#30331;&#24405;" style="stroke:#3C5488;stroke-width:1;"/><polygon fill="#3C5488" points="196.09,178.6719,195.907,188.5191,198.0355,183.2779,203.2766,185.4063,196.09,178.6719" style="stroke:#3C5488;stroke-width:1;stroke-linejoin:miter;stroke-miterlimit:10;"/><text fill="#000000" font-family="'Noto Sans CJK SC'" font-size="13" lengthAdjust="spacing" textLength="52.0001" x="206.23" y="224.3519">&#26657;&#39564;&#22833;&#36133;</text></g><!--link ???? to ????--><g class="link" data-entity-1="ent0004" data-entity-2="ent0006" data-link-type="dependency" data-source-line="22" id="lnk7"><path d="M183.23,308.6519 C183.23,331.4219 183.23,360.2419 183.23,382.9819" fill="none" id="&#30331;&#24405;&#26657;&#39564;-to-&#23398;&#29983;&#20250;&#35805;" style="stroke:#3C5488;stroke-width:1;"/><polygon fill="#3C5488" points="183.23,387.9819,187.23,378.9819,183.23,382.9819,179.23,378.9819,183.23,387.9819" style="stroke:#3C5488;stroke-width:1;stroke-linejoin:miter;stroke-miterlimit:10;"/><text fill="#000000" font-family="'Noto Sans CJK SC'" font-size="13" lengthAdjust="spacing" textLength="52.0001" x="184.23" y="354.3519">&#23398;&#29983;&#36523;&#20221;</text></g><!--link ???? to ????--><g class="link" data-entity-1="ent0004" data-entity-2="ent0008" data-link-type="dependency" data-source-line="23" id="lnk9"><path d="M152.07,308.5719 C141.7,317.3719 130.45,327.7519 121.23,338.2719 C107.83,353.5719 97.8059,368.4825 88.7359,383.4925" fill="none" id="&#30331;&#24405;&#26657;&#39564;-to-&#25945;&#24072;&#20250;&#35805;" style="stroke:#3C5488;stroke-width:1;"/><polygon fill="#3C5488" points="86.15,387.7719,94.2281,382.1377,88.7359,383.4925,87.3811,378.0003,86.15,387.7719" style="stroke:#3C5488;stroke-width:1;stroke-linejoin:miter;stroke-miterlimit:10;"/><text fill="#000000" font-family="'Noto Sans CJK SC'" font-size="13" lengthAdjust="spacing" textLength="52.0001" x="122.23" y="354.3519">&#25945;&#24072;&#36523;&#20221;</text></g><!--link ???? to ?????--><g class="link" data-entity-1="ent0004" data-entity-2="ent0010" data-link-type="dependency" data-source-line="24" id="lnk11"><path d="M213.7,308.6319 C224.13,317.5219 235.59,327.9419 245.23,338.2719 C259.74,353.8219 271.2917,368.9206 281.8717,383.8706" fill="none" id="&#30331;&#24405;&#26657;&#39564;-to-&#31649;&#29702;&#21592;&#20250;&#35805;" style="stroke:#3C5488;stroke-width:1;"/><polygon fill="#3C5488" points="284.76,387.9519,282.8261,378.2948,281.8717,383.8706,276.2959,382.9161,284.76,387.9519" style="stroke:#3C5488;stroke-width:1;stroke-linejoin:miter;stroke-miterlimit:10;"/><text fill="#000000" font-family="'Noto Sans CJK SC'" font-size="13" lengthAdjust="spacing" textLength="65.0001" x="263.23" y="354.3519">&#31649;&#29702;&#21592;&#36523;&#20221;</text></g><!--link ???? to ?????--><g class="link" data-entity-1="ent0006" data-entity-2="ent0013" data-link-type="dependency" data-source-line="26" id="lnk14"><path d="M173.41,438.4619 C166.33,453.9119 155.66,473.6919 142.23,488.2719 C131.81,499.5819 122.7479,506.9503 110.0079,515.2603" fill="none" id="&#23398;&#29983;&#20250;&#35805;-to-&#21463;&#20445;&#25252;&#19994;&#21153;" style="stroke:#3C5488;stroke-width:1;"/><polygon fill="#3C5488" points="105.82,517.9919,115.5435,516.4252,110.0079,515.2603,111.1728,509.7247,105.82,517.9919" style="stroke:#3C5488;stroke-width:1;stroke-linejoin:miter;stroke-miterlimit:10;"/><text fill="#000000" font-family="'Noto Sans CJK SC'" font-size="13" lengthAdjust="spacing" textLength="78.0001" x="158.23" y="484.3519">&#35775;&#38382;&#20010;&#20154;&#19994;&#21153;</text></g><!--link ???? to ?????--><g class="link" data-entity-1="ent0008" data-entity-2="ent0013" data-link-type="dependency" data-source-line="27" id="lnk15"><path d="M64.48,438.7519 C61.96,447.9119 59.48,458.4719 58.23,468.2719 C56.13,484.7219 56.466,498.4017 57.756,512.8717" fill="none" id="&#25945;&#24072;&#20250;&#35805;-to-&#21463;&#20445;&#25252;&#19994;&#21153;" style="stroke:#3C5488;stroke-width:1;"/><polygon fill="#3C5488" points="58.2,517.8519,61.385,508.5323,57.756,512.8717,53.4166,509.2427,58.2,517.8519" style="stroke:#3C5488;stroke-width:1;stroke-linejoin:miter;stroke-miterlimit:10;"/><text fill="#000000" font-family="'Noto Sans CJK SC'" font-size="13" lengthAdjust="spacing" textLength="78.0001" x="59.23" y="484.3519">&#26597;&#30475;&#25945;&#23398;&#25968;&#25454;</text></g><!--link ????? to ????--><g class="link" data-entity-1="ent0010" data-entity-2="ent0016" data-link-type="dependency" data-source-line="28" id="lnk17"><path d="M295.23,438.5019 C292.74,453.4119 291.74,472.5919 298.23,488.2719 C302.85,499.4219 307.4185,505.9833 316.0085,514.3033" fill="none" id="&#31649;&#29702;&#21592;&#20250;&#35805;-to-&#31649;&#29702;&#19994;&#21153;" style="stroke:#3C5488;stroke-width:1;"/><polygon fill="#3C5488" points="319.6,517.7819,315.9182,508.6471,316.0085,514.3033,310.3523,514.3936,319.6,517.7819" style="stroke:#3C5488;stroke-width:1;stroke-linejoin:miter;stroke-miterlimit:10;"/><text fill="#000000" font-family="'Noto Sans CJK SC'" font-size="13" lengthAdjust="spacing" textLength="78.0001" x="299.23" y="484.3519">&#35775;&#38382;&#21518;&#21488;&#31649;&#29702;</text></g><!--link ????? to ???--><g class="link" data-entity-1="ent0013" data-entity-2="ent0002" data-link-type="dependency" data-source-line="29" id="lnk18"><path d="M46.19,517.8919 C29.4,487.6619 6,434.4719 17.23,388.2719 C38.5,300.7719 51.85,276.8319 110.23,208.2719 C121.98,194.4719 133.7552,184.9536 147.7352,175.5936" fill="none" id="&#21463;&#20445;&#25252;&#19994;&#21153;-to-&#26410;&#30331;&#24405;" style="stroke:#3C5488;stroke-width:1;"/><polygon fill="#3C5488" points="151.89,172.8119,142.1861,174.4952,147.7352,175.5936,146.6368,181.1428,151.89,172.8119" style="stroke:#3C5488;stroke-width:1;stroke-linejoin:miter;stroke-miterlimit:10;"/><text fill="#000000" font-family="'Noto Sans CJK SC'" font-size="13" lengthAdjust="spacing" textLength="52.0001" x="32.23" y="354.3519">&#36864;&#20986;&#30331;&#24405;</text></g><!--link ???? to ???--><g class="link" data-entity-1="ent0016" data-entity-2="ent0002" data-link-type="dependency" data-source-line="30" id="lnk19"><path d="M369.24,517.8519 C374.48,508.9519 379.57,498.5519 382.23,488.2719 C393.58,444.4819 379.01,430.6719 363.23,388.2719 C331.6,303.3019 328.81,274.8119 267.23,208.2719 C252.28,192.1119 235.8741,181.096 218.7141,171.686" fill="none" id="&#31649;&#29702;&#19994;&#21153;-to-&#26410;&#30331;&#24405;" style="stroke:#3C5488;stroke-width:1;"/><polygon fill="#3C5488" points="214.33,169.2819,220.2981,177.1166,218.7141,171.686,224.1447,170.102,214.33,169.2819" style="stroke:#3C5488;stroke-width:1;stroke-linejoin:miter;stroke-miterlimit:10;"/><text fill="#000000" font-family="'Noto Sans CJK SC'" font-size="13" lengthAdjust="spacing" textLength="52.0001" x="352.23" y="354.3519">&#36864;&#20986;&#30331;&#24405;</text></g><?plantuml-src XPHFRn916CRl-oacxSsaIQ4rK0ycihe7DOq9yMGyJ65eDuKTt1qatcXggk8VQ2AfO4d1G1FHGXiRfOkLBxCpi_ijtBBDTbbWEKmoyxw_zvdddSaCaKaQ0Ql-ZPRthUy_MRrjjeU6NkELAZqvvf-FUEqrEtjdzaxuODUuQD2BNxHqokgxLhNCYxzPOOT-_ITesxAIXIhCW2HAmLoQI5WXwp23mC8w9XZ4eQ81yU4Z41SNFB2s1PCuBokR80NJ6l9aDc1YUrF5EIKfuZHMGNvB9jxyFLN5UIUrk2BUNer6lSa4mMeCgqca1Y9N9g-1K2WK3KSym5CD9Q26nbIMboFXM7WAv3ExA4Mbc2HvG15dibX12WdMky7cAjw716vC6bnx45cPHatehKgIjEOXu-X53Ya9z5XEsKD1mSVt1Af4JiXPEAyZBpYt9_jIv9SoUHKiwL8pz8Hdjvw3fQMxW1rsU7L0Bok2Enl5dIbhDAtE1t07i5BPq5lc-J4j_Q6zFTxO4SQ8gnBdAHX_QsQlRfSuIrF_OGmk9s5cFvt-MnTsbhDWtctoyXxT_-BoRcIcljkDBJuAqzQPUTuMnboER9SEZ66T5Lj6lqQBJPitkqFhe6lqEuQkEq5XpExqAdRKveVlsUXBO9LJzh4h-7tVzEBRYvO_sH-6anByqlvsh4A1lj6lRsrCBeZy3m00?></g></svg>