<svg xmlns="http://www.w3.org/2000/svg" xmlns:xlink="http://www.w3.org/1999/xlink" contentStyleType="text/css" data-diagram-type="CLASS" height="549px" preserveAspectRatio="none" style="width:418px;height:549px;background:#FFFFFF;" version="1.1" viewBox="0 0 418 549" width="418px" zoomAndPan="magnify"><?plantuml 1.2026.5?><defs/><g><g class="title" data-source-line="1"><text fill="#000000" font-family="'Noto Sans CJK SC'" font-size="14" font-weight="700" lengthAdjust="spacing" textLength="391.9983" x="10" y="26.2399">&#38754;&#21521;&#39532;&#26469;&#35199;&#20122;&#30041;&#23398;&#29983;&#30340;&#27721;&#35821;&#32451;&#20064;&#24179;&#21488;&#35748;&#35777;&#19982;&#36164;&#26009;&#27169;&#22359;&#25968;&#25454;&#20851;&#31995;&#22270;</text></g><!--class Req--><g class="entity" data-qualified-name="Req" data-source-line="20" id="ent0001"><rect fill="#F1F1F1" height="108.8157" rx="2.5" ry="2.5" style="stroke:#181818;stroke-width:0.5;" width="185.9993" x="112.4995" y="48.2719"/><ellipse cx="127.4995" cy="64.2719" fill="#ADD1B2" rx="11" ry="11" style="stroke:#181818;stroke-width:1;"/><path d="M130.4682,69.9125 Q129.8901,70.2094 129.2495,70.35 Q128.6089,70.5063 127.9057,70.5063 Q125.4057,70.5063 124.0776,68.8657 Q122.7651,67.2094 122.7651,64.0844 Q122.7651,60.9594 124.0776,59.3032 Q125.4057,57.6469 127.9057,57.6469 Q128.6089,57.6469 129.2495,57.8032 Q129.9057,57.9594 130.4682,58.2563 L130.4682,60.975 Q129.8432,60.3969 129.2495,60.1313 Q128.6557,59.85 128.0307,59.85 Q126.687,59.85 125.9995,60.9282 Q125.312,61.9907 125.312,64.0844 Q125.312,66.1782 125.9995,67.2563 Q126.687,68.3188 128.0307,68.3188 Q128.6557,68.3188 129.2495,68.0532 Q129.8432,67.7719 130.4682,67.1938 L130.4682,69.9125 Z " fill="#000000"/><text fill="#000000" font-family="'Noto Sans CJK SC'" font-size="14" lengthAdjust="spacing" textLength="153.9993" x="141.4995" y="70.3759">&#35748;&#35777;&#19982;&#36164;&#26009;&#27169;&#22359;&#35831;&#27714;&#21442;&#25968;</text><line style="stroke:#181818;stroke-width:0.5;" x1="113.4995" x2="297.4988" y1="80.2719" y2="80.2719"/><g data-visibility-modifier="PUBLIC_FIELD"><ellipse cx="123.4995" cy="95.9079" fill="none" rx="3" ry="3" style="stroke:#038048;stroke-width:1;"/></g><text fill="#000000" font-family="'Noto Sans CJK SC'" font-size="14" lengthAdjust="spacing" textLength="41.0198" x="132.4995" y="100.5118">userId</text><g data-visibility-modifier="PUBLIC_FIELD"><ellipse cx="123.4995" cy="116.1798" fill="none" rx="3" ry="3" style="stroke:#038048;stroke-width:1;"/></g><text fill="#000000" font-family="'Noto Sans CJK SC'" font-size="14" lengthAdjust="spacing" textLength="37.6599" x="132.4995" y="120.7838">query</text><g data-visibility-modifier="PUBLIC_FIELD"><ellipse cx="123.4995" cy="136.4517" fill="none" rx="3" ry="3" style="stroke:#038048;stroke-width:1;"/></g><text fill="#000000" font-family="'Noto Sans CJK SC'" font-size="14" lengthAdjust="spacing" textLength="52.8778" x="132.4995" y="141.0557">payload</text><line style="stroke:#181818;stroke-width:0.5;" x1="113.4995" x2="297.4988" y1="149.0876" y2="149.0876"/></g><!--class Res--><g class="entity" data-qualified-name="Res" data-source-line="25" id="ent0002"><rect fill="#F1F1F1" height="108.8157" rx="2.5" ry="2.5" style="stroke:#181818;stroke-width:0.5;" width="185.9993" x="112.4995" y="425.9019"/><ellipse cx="127.4995" cy="441.9019" fill="#ADD1B2" rx="11" ry="11" style="stroke:#181818;stroke-width:1;"/><path d="M130.4682,447.5425 Q129.8901,447.8394 129.2495,447.98 Q128.6089,448.1363 127.9057,448.1363 Q125.4057,448.1363 124.0776,446.4957 Q122.7651,444.8394 122.7651,441.7144 Q122.7651,438.5894 124.0776,436.9332 Q125.4057,435.2769 127.9057,435.2769 Q128.6089,435.2769 129.2495,435.4332 Q129.9057,435.5894 130.4682,435.8863 L130.4682,438.605 Q129.8432,438.0269 129.2495,437.7613 Q128.6557,437.48 128.0307,437.48 Q126.687,437.48 125.9995,438.5582 Q125.312,439.6207 125.312,441.7144 Q125.312,443.8082 125.9995,444.8863 Q126.687,445.9488 128.0307,445.9488 Q128.6557,445.9488 129.2495,445.6832 Q129.8432,445.4019 130.4682,444.8238 L130.4682,447.5425 Z " fill="#000000"/><text fill="#000000" font-family="'Noto Sans CJK SC'" font-size="14" lengthAdjust="spacing" textLength="153.9993" x="141.4995" y="448.0059">&#35748;&#35777;&#19982;&#36164;&#26009;&#27169;&#22359;&#21709;&#24212;&#32467;&#26524;</text><line style="stroke:#181818;stroke-width:0.5;" x1="113.4995" x2="297.4988" y1="457.9019" y2="457.9019"/><g data-visibility-modifier="PUBLIC_FIELD"><ellipse cx="123.4995" cy="473.5379" fill="none" rx="3" ry="3" style="stroke:#038048;stroke-width:1;"/></g><text fill="#000000" font-family="'Noto Sans CJK SC'" font-size="14" lengthAdjust="spacing" textLength="32.0599" x="132.4995" y="478.1418">code</text><g data-visibility-modifier="PUBLIC_FIELD"><ellipse cx="123.4995" cy="493.8098" fill="none" rx="3" ry="3" style="stroke:#038048;stroke-width:1;"/></g><text fill="#000000" font-family="'Noto Sans CJK SC'" font-size="14" lengthAdjust="spacing" textLength="57.3578" x="132.4995" y="498.4138">message</text><g data-visibility-modifier="PUBLIC_FIELD"><ellipse cx="123.4995" cy="514.0817" fill="none" rx="3" ry="3" style="stroke:#038048;stroke-width:1;"/></g><text fill="#000000" font-family="'Noto Sans CJK SC'" font-size="14" lengthAdjust="spacing" textLength="29.7219" x="132.4995" y="518.6857">data</text><line style="stroke:#181818;stroke-width:0.5;" x1="113.4995" x2="297.4988" y1="526.7176" y2="526.7176"/></g><!--class D0--><g class="entity" data-qualified-name="D0" data-source-line="30" id="ent0003"><rect fill="#F1F1F1" height="108.8157" rx="2.5" ry="2.5" style="stroke:#181818;stroke-width:0.5;" width="81.9998" x="164.4995" y="237.0919"/><ellipse cx="186.3439" cy="253.0919" fill="#ADD1B2" rx="11" ry="11" style="stroke:#181818;stroke-width:1;"/><path d="M189.3127,258.7325 Q188.7346,259.0294 188.0939,259.17 Q187.4533,259.3263 186.7502,259.3263 Q184.2502,259.3263 182.9221,257.6857 Q181.6096,256.0294 181.6096,252.9044 Q181.6096,249.7794 182.9221,248.1232 Q184.2502,246.4669 186.7502,246.4669 Q187.4533,246.4669 188.0939,246.6232 Q188.7502,246.7794 189.3127,247.0763 L189.3127,249.795 Q188.6877,249.2169 188.0939,248.9513 Q187.5002,248.67 186.8752,248.67 Q185.5314,248.67 184.8439,249.7482 Q184.1564,250.8107 184.1564,252.9044 Q184.1564,254.9982 184.8439,256.0763 Q185.5314,257.1388 186.8752,257.1388 Q187.5002,257.1388 188.0939,256.8732 Q188.6877,256.5919 189.3127,256.0138 L189.3127,258.7325 Z " fill="#000000"/><text fill="#000000" font-family="'Noto Sans CJK SC'" font-size="14" lengthAdjust="spacing" textLength="34.7899" x="201.8649" y="259.1959">users</text><line style="stroke:#181818;stroke-width:0.5;" x1="165.4995" x2="245.4992" y1="269.0919" y2="269.0919"/><g data-visibility-modifier="PUBLIC_FIELD"><ellipse cx="175.4995" cy="284.7279" fill="none" rx="3" ry="3" style="stroke:#038048;stroke-width:1;"/></g><text fill="#000000" font-family="'Noto Sans CJK SC'" font-size="14" lengthAdjust="spacing" textLength="12.53" x="184.4995" y="289.3318">id</text><g data-visibility-modifier="PUBLIC_FIELD"><ellipse cx="175.4995" cy="304.9998" fill="none" rx="3" ry="3" style="stroke:#038048;stroke-width:1;"/></g><text fill="#000000" font-family="'Noto Sans CJK SC'" font-size="14" lengthAdjust="spacing" textLength="55.9998" x="184.4995" y="309.6038">&#19994;&#21153;&#23383;&#27573;</text><g data-visibility-modifier="PUBLIC_FIELD"><ellipse cx="175.4995" cy="325.2717" fill="none" rx="3" ry="3" style="stroke:#038048;stroke-width:1;"/></g><text fill="#000000" font-family="'Noto Sans CJK SC'" font-size="14" lengthAdjust="spacing" textLength="55.9998" x="184.4995" y="329.8757">&#26102;&#38388;&#23383;&#27573;</text><line style="stroke:#181818;stroke-width:0.5;" x1="165.4995" x2="245.4992" y1="337.9076" y2="337.9076"/></g><!--link Req to D0--><g class="link" data-entity-1="ent0001" data-entity-2="ent0003" data-link-type="dependency" data-source-line="35" id="lnk4"><path codeLine="35" d="M205.4995,157.4619 C205.4995,182.3619 205.4995,206.8819 205.4995,231.7719" fill="none" id="Req-to-D0" style="stroke:#3C5488;stroke-width:1;"/><polygon fill="#3C5488" points="205.4995,236.7719,209.4995,227.7719,205.4995,231.7719,201.4995,227.7719,205.4995,236.7719" style="stroke:#3C5488;stroke-width:1;stroke-linejoin:miter;stroke-miterlimit:10;"/><text fill="#000000" font-family="'Noto Sans CJK SC'" font-size="13" lengthAdjust="spacing" textLength="68.315" x="206.4995" y="203.1719">/api/auth/*</text></g><!--link D0 to Res--><g class="link" data-entity-1="ent0003" data-entity-2="ent0002" data-link-type="dependency" data-source-line="36" id="lnk5"><path codeLine="36" d="M205.4995,346.2819 C205.4995,371.1819 205.4995,395.6919 205.4995,420.5819" fill="none" id="D0-to-Res" style="stroke:#3C5488;stroke-width:1;"/><polygon fill="#3C5488" points="205.4995,425.5819,209.4995,416.5819,205.4995,420.5819,201.4995,416.5819,205.4995,425.5819" style="stroke:#3C5488;stroke-width:1;stroke-linejoin:miter;stroke-miterlimit:10;"/><text fill="#000000" font-family="'Noto Sans CJK SC'" font-size="13" lengthAdjust="spacing" textLength="52.0001" x="206.4995" y="391.9819">&#32452;&#35013;&#36820;&#22238;</text></g><?plantuml-src XPBTJXD15CVlzoacvKv3-W6cXGiJkxY97o76nWSOTgVjXEtECZErQGmNOhdG185GR2WMHSLeObj8HO4cyZATsUrRkDisiahTNapcd3c_yv__V73CJGJwZGzYQxl_zPji7Bb7bxsBkhEx9vgVdUexfrwH9o_TTjFflkYTlnVd7R5vxBO-kUtdlRFNxcb5ljcJNmv5eoPtZ-L6Iwntd4vNxFzIs3AsR4XX0HWe2uicruZ55s41WSWYuGHaeCM0Uly1oAYH0Cpoq20bREL05feC1IfBK5_EKLAq39MOX89I7lDW_Gwbf3GiJSsejsPJgM1HvuIc2JKG3KLyaoCW7e-d4ia0y8GX7JBqbqeibaoa4sEWVynEQIajhMa1K2K5crZ8uk5wLzX4nGN8uT9rWtDtapFZg6jwivgcpGN835ef8aj73t7M6nOAlxv7a7AiOnjEEb4Gd7Wcxr7mKypBuP9_gF_eARe96GEHiH_NRV-K9sjYSytxmH406NYCLi0p1O2RHOReFSEFl8kWPJ-mOTaaq51MGoN5peQug3hT7NdmTYJ9Xf8wCP0_5n1ZC3S83Uz1hlJyFTcWPo4sRC431xspkdXrA9ersJhrSrdxqQzz7-MhYkzvUlgstpGFej36KLZa-UWDnLlmrtq3yy3fLjoFw-vbLUmV_0O0?></g></svg>