<svg xmlns="http://www.w3.org/2000/svg" xmlns:xlink="http://www.w3.org/1999/xlink" contentStyleType="text/css" data-diagram-type="CLASS" height="549px" preserveAspectRatio="none" style="width:404px;height:549px;background:#FFFFFF;" version="1.1" viewBox="0 0 404 549" width="404px" zoomAndPan="magnify"><?plantuml 1.2026.5?><defs/><g><g class="title" data-source-line="1"><text fill="#000000" font-family="'Noto Sans CJK SC'" font-size="14" font-weight="700" lengthAdjust="spacing" textLength="377.9984" x="10" y="26.2399">&#38754;&#21521;&#39532;&#26469;&#35199;&#20122;&#30041;&#23398;&#29983;&#30340;&#27721;&#35821;&#32451;&#20064;&#24179;&#21488;&#23398;&#20064;&#35760;&#24405;&#27169;&#22359;&#25968;&#25454;&#20851;&#31995;&#22270;</text></g><!--class Req--><g class="entity" data-qualified-name="Req" data-source-line="20" id="ent0001"><rect fill="#F1F1F1" height="108.8157" rx="2.5" ry="2.5" style="stroke:#181818;stroke-width:0.5;" width="171.9994" x="23.3421" y="48.2719"/><ellipse cx="38.3421" cy="64.2719" fill="#ADD1B2" rx="11" ry="11" style="stroke:#181818;stroke-width:1;"/><path d="M41.3108,69.9125 Q40.7327,70.2094 40.0921,70.35 Q39.4514,70.5063 38.7483,70.5063 Q36.2483,70.5063 34.9202,68.8657 Q33.6077,67.2094 33.6077,64.0844 Q33.6077,60.9594 34.9202,59.3032 Q36.2483,57.6469 38.7483,57.6469 Q39.4514,57.6469 40.0921,57.8032 Q40.7483,57.9594 41.3108,58.2563 L41.3108,60.975 Q40.6858,60.3969 40.0921,60.1313 Q39.4983,59.85 38.8733,59.85 Q37.5296,59.85 36.8421,60.9282 Q36.1546,61.9907 36.1546,64.0844 Q36.1546,66.1782 36.8421,67.2563 Q37.5296,68.3188 38.8733,68.3188 Q39.4983,68.3188 40.0921,68.0532 Q40.6858,67.7719 41.3108,67.1938 L41.3108,69.9125 Z " fill="#000000"/><text fill="#000000" font-family="'Noto Sans CJK SC'" font-size="14" lengthAdjust="spacing" textLength="139.9994" x="52.3421" y="70.3759">&#23398;&#20064;&#35760;&#24405;&#27169;&#22359;&#35831;&#27714;&#21442;&#25968;</text><line style="stroke:#181818;stroke-width:0.5;" x1="24.3421" x2="194.3415" y1="80.2719" y2="80.2719"/><g data-visibility-modifier="PUBLIC_FIELD"><ellipse cx="34.3421" cy="95.9079" fill="none" rx="3" ry="3" style="stroke:#038048;stroke-width:1;"/></g><text fill="#000000" font-family="'Noto Sans CJK SC'" font-size="14" lengthAdjust="spacing" textLength="41.0198" x="43.3421" y="100.5118">userId</text><g data-visibility-modifier="PUBLIC_FIELD"><ellipse cx="34.3421" cy="116.1798" fill="none" rx="3" ry="3" style="stroke:#038048;stroke-width:1;"/></g><text fill="#000000" font-family="'Noto Sans CJK SC'" font-size="14" lengthAdjust="spacing" textLength="37.6599" x="43.3421" y="120.7838">query</text><g data-visibility-modifier="PUBLIC_FIELD"><ellipse cx="34.3421" cy="136.4517" fill="none" rx="3" ry="3" style="stroke:#038048;stroke-width:1;"/></g><text fill="#000000" font-family="'Noto Sans CJK SC'" font-size="14" lengthAdjust="spacing" textLength="52.8778" x="43.3421" y="141.0557">payload</text><line style="stroke:#181818;stroke-width:0.5;" x1="24.3421" x2="194.3415" y1="149.0876" y2="149.0876"/></g><!--class Res--><g class="entity" data-qualified-name="Res" data-source-line="25" id="ent0002"><rect fill="#F1F1F1" height="108.8157" rx="2.5" ry="2.5" style="stroke:#181818;stroke-width:0.5;" width="171.9994" x="23.3421" y="425.9019"/><ellipse cx="38.3421" cy="441.9019" fill="#ADD1B2" rx="11" ry="11" style="stroke:#181818;stroke-width:1;"/><path d="M41.3108,447.5425 Q40.7327,447.8394 40.0921,447.98 Q39.4514,448.1363 38.7483,448.1363 Q36.2483,448.1363 34.9202,446.4957 Q33.6077,444.8394 33.6077,441.7144 Q33.6077,438.5894 34.9202,436.9332 Q36.2483,435.2769 38.7483,435.2769 Q39.4514,435.2769 40.0921,435.4332 Q40.7483,435.5894 41.3108,435.8863 L41.3108,438.605 Q40.6858,438.0269 40.0921,437.7613 Q39.4983,437.48 38.8733,437.48 Q37.5296,437.48 36.8421,438.5582 Q36.1546,439.6207 36.1546,441.7144 Q36.1546,443.8082 36.8421,444.8863 Q37.5296,445.9488 38.8733,445.9488 Q39.4983,445.9488 40.0921,445.6832 Q40.6858,445.4019 41.3108,444.8238 L41.3108,447.5425 Z " fill="#000000"/><text fill="#000000" font-family="'Noto Sans CJK SC'" font-size="14" lengthAdjust="spacing" textLength="139.9994" x="52.3421" y="448.0059">&#23398;&#20064;&#35760;&#24405;&#27169;&#22359;&#21709;&#24212;&#32467;&#26524;</text><line style="stroke:#181818;stroke-width:0.5;" x1="24.3421" x2="194.3415" y1="457.9019" y2="457.9019"/><g data-visibility-modifier="PUBLIC_FIELD"><ellipse cx="34.3421" cy="473.5379" fill="none" rx="3" ry="3" style="stroke:#038048;stroke-width:1;"/></g><text fill="#000000" font-family="'Noto Sans CJK SC'" font-size="14" lengthAdjust="spacing" textLength="32.0599" x="43.3421" y="478.1418">code</text><g data-visibility-modifier="PUBLIC_FIELD"><ellipse cx="34.3421" cy="493.8098" fill="none" rx="3" ry="3" style="stroke:#038048;stroke-width:1;"/></g><text fill="#000000" font-family="'Noto Sans CJK SC'" font-size="14" lengthAdjust="spacing" textLength="57.3578" x="43.3421" y="498.4138">message</text><g data-visibility-modifier="PUBLIC_FIELD"><ellipse cx="34.3421" cy="514.0817" fill="none" rx="3" ry="3" style="stroke:#038048;stroke-width:1;"/></g><text fill="#000000" font-family="'Noto Sans CJK SC'" font-size="14" lengthAdjust="spacing" textLength="29.7219" x="43.3421" y="518.6857">data</text><line style="stroke:#181818;stroke-width:0.5;" x1="24.3421" x2="194.3415" y1="526.7176" y2="526.7176"/></g><!--class D0--><g class="entity" data-qualified-name="D0" data-source-line="30" id="ent0003"><rect fill="#F1F1F1" height="108.8157" rx="2.5" ry="2.5" style="stroke:#181818;stroke-width:0.5;" width="125.6036" x="46.5421" y="237.0919"/><ellipse cx="61.5421" cy="253.0919" fill="#ADD1B2" rx="11" ry="11" style="stroke:#181818;stroke-width:1;"/><path d="M64.5108,258.7325 Q63.9327,259.0294 63.2921,259.17 Q62.6514,259.3263 61.9483,259.3263 Q59.4483,259.3263 58.1202,257.6857 Q56.8077,256.0294 56.8077,252.9044 Q56.8077,249.7794 58.1202,248.1232 Q59.4483,246.4669 61.9483,246.4669 Q62.6514,246.4669 63.2921,246.6232 Q63.9483,246.7794 64.5108,247.0763 L64.5108,249.795 Q63.8858,249.2169 63.2921,248.9513 Q62.6983,248.67 62.0733,248.67 Q60.7296,248.67 60.0421,249.7482 Q59.3546,250.8107 59.3546,252.9044 Q59.3546,254.9982 60.0421,256.0763 Q60.7296,257.1388 62.0733,257.1388 Q62.6983,257.1388 63.2921,256.8732 Q63.8858,256.5919 64.5108,256.0138 L64.5108,258.7325 Z " fill="#000000"/><text fill="#000000" font-family="'Noto Sans CJK SC'" font-size="14" lengthAdjust="spacing" textLength="93.6036" x="75.5421" y="259.1959">study_records</text><line style="stroke:#181818;stroke-width:0.5;" x1="47.5421" x2="171.1457" y1="269.0919" y2="269.0919"/><g data-visibility-modifier="PUBLIC_FIELD"><ellipse cx="57.5421" cy="284.7279" fill="none" rx="3" ry="3" style="stroke:#038048;stroke-width:1;"/></g><text fill="#000000" font-family="'Noto Sans CJK SC'" font-size="14" lengthAdjust="spacing" textLength="12.53" x="66.5421" y="289.3318">id</text><g data-visibility-modifier="PUBLIC_FIELD"><ellipse cx="57.5421" cy="304.9998" fill="none" rx="3" ry="3" style="stroke:#038048;stroke-width:1;"/></g><text fill="#000000" font-family="'Noto Sans CJK SC'" font-size="14" lengthAdjust="spacing" textLength="55.9998" x="66.5421" y="309.6038">&#19994;&#21153;&#23383;&#27573;</text><g data-visibility-modifier="PUBLIC_FIELD"><ellipse cx="57.5421" cy="325.2717" fill="none" rx="3" ry="3" style="stroke:#038048;stroke-width:1;"/></g><text fill="#000000" font-family="'Noto Sans CJK SC'" font-size="14" lengthAdjust="spacing" textLength="55.9998" x="66.5421" y="329.8757">&#26102;&#38388;&#23383;&#27573;</text><line style="stroke:#181818;stroke-width:0.5;" x1="47.5421" x2="171.1457" y1="337.9076" y2="337.9076"/></g><!--link Req to D0--><g class="link" data-entity-1="ent0001" data-entity-2="ent0003" data-link-type="dependency" data-source-line="35" id="lnk4"><path codeLine="35" d="M109.3421,157.4619 C109.3421,182.3619 109.3421,206.8819 109.3421,231.7719" fill="none" id="Req-to-D0" style="stroke:#3C5488;stroke-width:1;"/><polygon fill="#3C5488" points="109.3421,236.7719,113.3421,227.7719,109.3421,231.7719,105.3421,227.7719,109.3421,236.7719" style="stroke:#3C5488;stroke-width:1;stroke-linejoin:miter;stroke-miterlimit:10;"/><text fill="#000000" font-family="'Noto Sans CJK SC'" font-size="13" lengthAdjust="spacing" textLength="262.3142" x="110.3421" y="203.1719">/api/learning/records&#12289;/api/admin/records</text></g><!--link D0 to Res--><g class="link" data-entity-1="ent0003" data-entity-2="ent0002" data-link-type="dependency" data-source-line="36" id="lnk5"><path codeLine="36" d="M109.3421,346.2819 C109.3421,371.1819 109.3421,395.6919 109.3421,420.5819" fill="none" id="D0-to-Res" style="stroke:#3C5488;stroke-width:1;"/><polygon fill="#3C5488" points="109.3421,425.5819,113.3421,416.5819,109.3421,420.5819,105.3421,416.5819,109.3421,425.5819" style="stroke:#3C5488;stroke-width:1;stroke-linejoin:miter;stroke-miterlimit:10;"/><text fill="#000000" font-family="'Noto Sans CJK SC'" font-size="13" lengthAdjust="spacing" textLength="52.0001" x="110.3421" y="391.9819">&#32452;&#35013;&#36820;&#22238;</text></g><?plantuml-src XPDRQnD15CVVzrCCwQEKN5f9sWV1f2vueOZ1PpdTdQH3DpFfpCGGfA2rVQXGgZGXc9fgbOg2ILFYhGtQ3sDcT_Cjt4sYNKsRF0npPixl_FcVkKWYBOnwzRVg-OlUnqzs_T0zFEkUrfpAIzLuxvHVExKD-tZBFMeudQVTapVgfArsMbxAYzrcI_ses1yELBrgLrhsTbDjjfrsH-tzrCGAeNdWa4Ccpa31aZgZSX5o68KMcMGe3LIWrAtRA9qA1M2n32Oh4ff56R043cIMm5Z9SbQWPefPZAFYCf71_7NEMN6Gcff9NPrD9899GpAUPDp4V2pYcnm2qMWq4Oi7WFi26o3mFogHI3oMZ5q0_MTsIa_eILqFW2cMopEAgHolTuvDL5m02KkZ1kTkn6SkeaRqPdLTdmkGQRnQmDJ0TqZ66nIFFxwxm2KnI1ucTHG49_RaNGfvI6HflEHVwX8zpR1021GQVRNkqJVxU5tjh7lFDuH0e7ju5JtI4BfI49ZVDFt8EmLUyeCyb2m6fhPskPxQtLQdPQUpQ--_6kg9WPx1JEpFEIm4PFkXwLt5kPYG1RFqW6F3QrNqQnSYWrBIjz7zNbFF3bIZQZU_-6kx-hLN_JnShsc-yUdfQtxHF0f3deGj39nwFoayrFpr-4b_7ymSeNysDO_totoVyyZfRBZlDjspijhR_mq0?></g></svg>