<svg xmlns="http://www.w3.org/2000/svg" xmlns:xlink="http://www.w3.org/1999/xlink" contentStyleType="text/css" data-diagram-type="CLASS" height="927px" preserveAspectRatio="none" style="width:888px;height:927px;background:#FFFFFF;" version="1.1" viewBox="0 0 888 927" width="888px" zoomAndPan="magnify"><?plantuml 1.2026.5?><defs/><g><g class="title" data-source-line="1"><text fill="#000000" font-family="'Noto Sans CJK SC'" font-size="14" font-weight="700" lengthAdjust="spacing" textLength="377.9984" x="251.7274" y="26.2399">&#38754;&#21521;&#39532;&#26469;&#35199;&#20122;&#30041;&#23398;&#29983;&#30340;&#27721;&#35821;&#32451;&#20064;&#24179;&#21488;&#21518;&#21488;&#32479;&#35745;&#27169;&#22359;&#25968;&#25454;&#20851;&#31995;&#22270;</text></g><!--class Req--><g class="entity" data-qualified-name="Req" data-source-line="20" id="ent0001"><rect fill="#F1F1F1" height="108.8157" rx="2.5" ry="2.5" style="stroke:#181818;stroke-width:0.5;" width="171.9994" x="477" y="48.2719"/><ellipse cx="492" cy="64.2719" fill="#ADD1B2" rx="11" ry="11" style="stroke:#181818;stroke-width:1;"/><path d="M494.9688,69.9125 Q494.3906,70.2094 493.75,70.35 Q493.1094,70.5063 492.4063,70.5063 Q489.9063,70.5063 488.5781,68.8657 Q487.2656,67.2094 487.2656,64.0844 Q487.2656,60.9594 488.5781,59.3032 Q489.9063,57.6469 492.4063,57.6469 Q493.1094,57.6469 493.75,57.8032 Q494.4063,57.9594 494.9688,58.2563 L494.9688,60.975 Q494.3438,60.3969 493.75,60.1313 Q493.1563,59.85 492.5313,59.85 Q491.1875,59.85 490.5,60.9282 Q489.8125,61.9907 489.8125,64.0844 Q489.8125,66.1782 490.5,67.2563 Q491.1875,68.3188 492.5313,68.3188 Q493.1563,68.3188 493.75,68.0532 Q494.3438,67.7719 494.9688,67.1938 L494.9688,69.9125 Z " fill="#000000"/><text fill="#000000" font-family="'Noto Sans CJK SC'" font-size="14" lengthAdjust="spacing" textLength="139.9994" x="506" y="70.3759">&#21518;&#21488;&#32479;&#35745;&#27169;&#22359;&#35831;&#27714;&#21442;&#25968;</text><line style="stroke:#181818;stroke-width:0.5;" x1="478" x2="647.9994" y1="80.2719" y2="80.2719"/><g data-visibility-modifier="PUBLIC_FIELD"><ellipse cx="488" cy="95.9079" fill="none" rx="3" ry="3" style="stroke:#038048;stroke-width:1;"/></g><text fill="#000000" font-family="'Noto Sans CJK SC'" font-size="14" lengthAdjust="spacing" textLength="41.0198" x="497" y="100.5118">userId</text><g data-visibility-modifier="PUBLIC_FIELD"><ellipse cx="488" cy="116.1798" fill="none" rx="3" ry="3" style="stroke:#038048;stroke-width:1;"/></g><text fill="#000000" font-family="'Noto Sans CJK SC'" font-size="14" lengthAdjust="spacing" textLength="37.6599" x="497" y="120.7838">query</text><g data-visibility-modifier="PUBLIC_FIELD"><ellipse cx="488" cy="136.4517" fill="none" rx="3" ry="3" style="stroke:#038048;stroke-width:1;"/></g><text fill="#000000" font-family="'Noto Sans CJK SC'" font-size="14" lengthAdjust="spacing" textLength="52.8778" x="497" y="141.0557">payload</text><line style="stroke:#181818;stroke-width:0.5;" x1="478" x2="647.9994" y1="149.0876" y2="149.0876"/></g><!--class Res--><g class="entity" data-qualified-name="Res" data-source-line="25" id="ent0002"><rect fill="#F1F1F1" height="108.8157" rx="2.5" ry="2.5" style="stroke:#181818;stroke-width:0.5;" width="171.9994" x="7" y="425.9019"/><ellipse cx="22" cy="441.9019" fill="#ADD1B2" rx="11" ry="11" style="stroke:#181818;stroke-width:1;"/><path d="M24.9688,447.5425 Q24.3906,447.8394 23.75,447.98 Q23.1094,448.1363 22.4063,448.1363 Q19.9063,448.1363 18.5781,446.4957 Q17.2656,444.8394 17.2656,441.7144 Q17.2656,438.5894 18.5781,436.9332 Q19.9063,435.2769 22.4063,435.2769 Q23.1094,435.2769 23.75,435.4332 Q24.4063,435.5894 24.9688,435.8863 L24.9688,438.605 Q24.3438,438.0269 23.75,437.7613 Q23.1563,437.48 22.5313,437.48 Q21.1875,437.48 20.5,438.5582 Q19.8125,439.6207 19.8125,441.7144 Q19.8125,443.8082 20.5,444.8863 Q21.1875,445.9488 22.5313,445.9488 Q23.1563,445.9488 23.75,445.6832 Q24.3438,445.4019 24.9688,444.8238 L24.9688,447.5425 Z " fill="#000000"/><text fill="#000000" font-family="'Noto Sans CJK SC'" font-size="14" lengthAdjust="spacing" textLength="139.9994" x="36" y="448.0059">&#21518;&#21488;&#32479;&#35745;&#27169;&#22359;&#21709;&#24212;&#32467;&#26524;</text><line style="stroke:#181818;stroke-width:0.5;" x1="8" x2="177.9994" y1="457.9019" y2="457.9019"/><g data-visibility-modifier="PUBLIC_FIELD"><ellipse cx="18" cy="473.5379" fill="none" rx="3" ry="3" style="stroke:#038048;stroke-width:1;"/></g><text fill="#000000" font-family="'Noto Sans CJK SC'" font-size="14" lengthAdjust="spacing" textLength="32.0599" x="27" y="478.1418">code</text><g data-visibility-modifier="PUBLIC_FIELD"><ellipse cx="18" cy="493.8098" fill="none" rx="3" ry="3" style="stroke:#038048;stroke-width:1;"/></g><text fill="#000000" font-family="'Noto Sans CJK SC'" font-size="14" lengthAdjust="spacing" textLength="57.3578" x="27" y="498.4138">message</text><g data-visibility-modifier="PUBLIC_FIELD"><ellipse cx="18" cy="514.0817" fill="none" rx="3" ry="3" style="stroke:#038048;stroke-width:1;"/></g><text fill="#000000" font-family="'Noto Sans CJK SC'" font-size="14" lengthAdjust="spacing" textLength="29.7219" x="27" y="518.6857">data</text><line style="stroke:#181818;stroke-width:0.5;" x1="8" x2="177.9994" y1="526.7176" y2="526.7176"/></g><!--class D0--><g class="entity" data-qualified-name="D0" data-source-line="30" id="ent0003"><rect fill="#F1F1F1" height="108.8157" rx="2.5" ry="2.5" style="stroke:#181818;stroke-width:0.5;" width="81.9998" x="146" y="237.0919"/><ellipse cx="167.8445" cy="253.0919" fill="#ADD1B2" rx="11" ry="11" style="stroke:#181818;stroke-width:1;"/><path d="M170.8132,258.7325 Q170.2351,259.0294 169.5945,259.17 Q168.9538,259.3263 168.2507,259.3263 Q165.7507,259.3263 164.4226,257.6857 Q163.1101,256.0294 163.1101,252.9044 Q163.1101,249.7794 164.4226,248.1232 Q165.7507,246.4669 168.2507,246.4669 Q168.9538,246.4669 169.5945,246.6232 Q170.2507,246.7794 170.8132,247.0763 L170.8132,249.795 Q170.1882,249.2169 169.5945,248.9513 Q169.0007,248.67 168.3757,248.67 Q167.032,248.67 166.3445,249.7482 Q165.657,250.8107 165.657,252.9044 Q165.657,254.9982 166.3445,256.0763 Q167.032,257.1388 168.3757,257.1388 Q169.0007,257.1388 169.5945,256.8732 Q170.1882,256.5919 170.8132,256.0138 L170.8132,258.7325 Z " fill="#000000"/><text fill="#000000" font-family="'Noto Sans CJK SC'" font-size="14" lengthAdjust="spacing" textLength="34.7899" x="183.3654" y="259.1959">users</text><line style="stroke:#181818;stroke-width:0.5;" x1="147" x2="226.9998" y1="269.0919" y2="269.0919"/><g data-visibility-modifier="PUBLIC_FIELD"><ellipse cx="157" cy="284.7279" fill="none" rx="3" ry="3" style="stroke:#038048;stroke-width:1;"/></g><text fill="#000000" font-family="'Noto Sans CJK SC'" font-size="14" lengthAdjust="spacing" textLength="12.53" x="166" y="289.3318">id</text><g data-visibility-modifier="PUBLIC_FIELD"><ellipse cx="157" cy="304.9998" fill="none" rx="3" ry="3" style="stroke:#038048;stroke-width:1;"/></g><text fill="#000000" font-family="'Noto Sans CJK SC'" font-size="14" lengthAdjust="spacing" textLength="55.9998" x="166" y="309.6038">&#19994;&#21153;&#23383;&#27573;</text><g data-visibility-modifier="PUBLIC_FIELD"><ellipse cx="157" cy="325.2717" fill="none" rx="3" ry="3" style="stroke:#038048;stroke-width:1;"/></g><text fill="#000000" font-family="'Noto Sans CJK SC'" font-size="14" lengthAdjust="spacing" textLength="55.9998" x="166" y="329.8757">&#26102;&#38388;&#23383;&#27573;</text><line style="stroke:#181818;stroke-width:0.5;" x1="147" x2="226.9998" y1="337.9076" y2="337.9076"/></g><!--class D1--><g class="entity" data-qualified-name="D1" data-source-line="35" id="ent0004"><rect fill="#F1F1F1" height="108.8157" rx="2.5" ry="2.5" style="stroke:#181818;stroke-width:0.5;" width="96.1897" x="295.9" y="425.9019"/><ellipse cx="310.9" cy="441.9019" fill="#ADD1B2" rx="11" ry="11" style="stroke:#181818;stroke-width:1;"/><path d="M313.8688,447.5425 Q313.2906,447.8394 312.65,447.98 Q312.0094,448.1363 311.3063,448.1363 Q308.8063,448.1363 307.4781,446.4957 Q306.1656,444.8394 306.1656,441.7144 Q306.1656,438.5894 307.4781,436.9332 Q308.8063,435.2769 311.3063,435.2769 Q312.0094,435.2769 312.65,435.4332 Q313.3063,435.5894 313.8688,435.8863 L313.8688,438.605 Q313.2438,438.0269 312.65,437.7613 Q312.0563,437.48 311.4313,437.48 Q310.0875,437.48 309.4,438.5582 Q308.7125,439.6207 308.7125,441.7144 Q308.7125,443.8082 309.4,444.8863 Q310.0875,445.9488 311.4313,445.9488 Q312.0563,445.9488 312.65,445.6832 Q313.2438,445.4019 313.8688,444.8238 L313.8688,447.5425 Z " fill="#000000"/><text fill="#000000" font-family="'Noto Sans CJK SC'" font-size="14" lengthAdjust="spacing" textLength="64.1897" x="324.9" y="448.0059">questions</text><line style="stroke:#181818;stroke-width:0.5;" x1="296.9" x2="391.0897" y1="457.9019" y2="457.9019"/><g data-visibility-modifier="PUBLIC_FIELD"><ellipse cx="306.9" cy="473.5379" fill="none" rx="3" ry="3" style="stroke:#038048;stroke-width:1;"/></g><text fill="#000000" font-family="'Noto Sans CJK SC'" font-size="14" lengthAdjust="spacing" textLength="12.53" x="315.9" y="478.1418">id</text><g data-visibility-modifier="PUBLIC_FIELD"><ellipse cx="306.9" cy="493.8098" fill="none" rx="3" ry="3" style="stroke:#038048;stroke-width:1;"/></g><text fill="#000000" font-family="'Noto Sans CJK SC'" font-size="14" lengthAdjust="spacing" textLength="55.9998" x="315.9" y="498.4138">&#19994;&#21153;&#23383;&#27573;</text><g data-visibility-modifier="PUBLIC_FIELD"><ellipse cx="306.9" cy="514.0817" fill="none" rx="3" ry="3" style="stroke:#038048;stroke-width:1;"/></g><text fill="#000000" font-family="'Noto Sans CJK SC'" font-size="14" lengthAdjust="spacing" textLength="55.9998" x="315.9" y="518.6857">&#26102;&#38388;&#23383;&#27573;</text><line style="stroke:#181818;stroke-width:0.5;" x1="296.9" x2="391.0897" y1="526.7176" y2="526.7176"/></g><!--class D2--><g class="entity" data-qualified-name="D2" data-source-line="40" id="ent0005"><rect fill="#F1F1F1" height="108.8157" rx="2.5" ry="2.5" style="stroke:#181818;stroke-width:0.5;" width="81.9998" x="430" y="614.7219"/><ellipse cx="447.2581" cy="630.7219" fill="#ADD1B2" rx="11" ry="11" style="stroke:#181818;stroke-width:1;"/><path d="M450.2268,636.3625 Q449.6487,636.6594 449.0081,636.8 Q448.3674,636.9563 447.6643,636.9563 Q445.1643,636.9563 443.8362,635.3157 Q442.5237,633.6594 442.5237,630.5344 Q442.5237,627.4094 443.8362,625.7532 Q445.1643,624.0969 447.6643,624.0969 Q448.3674,624.0969 449.0081,624.2532 Q449.6643,624.4094 450.2268,624.7063 L450.2268,627.425 Q449.6018,626.8469 449.0081,626.5813 Q448.4143,626.3 447.7893,626.3 Q446.4456,626.3 445.7581,627.3782 Q445.0706,628.4407 445.0706,630.5344 Q445.0706,632.6282 445.7581,633.7063 Q446.4456,634.7688 447.7893,634.7688 Q448.4143,634.7688 449.0081,634.5032 Q449.6018,634.2219 450.2268,633.6438 L450.2268,636.3625 Z " fill="#000000"/><text fill="#000000" font-family="'Noto Sans CJK SC'" font-size="14" lengthAdjust="spacing" textLength="44.9818" x="461.7599" y="636.8259">papers</text><line style="stroke:#181818;stroke-width:0.5;" x1="431" x2="510.9998" y1="646.7219" y2="646.7219"/><g data-visibility-modifier="PUBLIC_FIELD"><ellipse cx="441" cy="662.3579" fill="none" rx="3" ry="3" style="stroke:#038048;stroke-width:1;"/></g><text fill="#000000" font-family="'Noto Sans CJK SC'" font-size="14" lengthAdjust="spacing" textLength="12.53" x="450" y="666.9618">id</text><g data-visibility-modifier="PUBLIC_FIELD"><ellipse cx="441" cy="682.6298" fill="none" rx="3" ry="3" style="stroke:#038048;stroke-width:1;"/></g><text fill="#000000" font-family="'Noto Sans CJK SC'" font-size="14" lengthAdjust="spacing" textLength="55.9998" x="450" y="687.2338">&#19994;&#21153;&#23383;&#27573;</text><g data-visibility-modifier="PUBLIC_FIELD"><ellipse cx="441" cy="702.9017" fill="none" rx="3" ry="3" style="stroke:#038048;stroke-width:1;"/></g><text fill="#000000" font-family="'Noto Sans CJK SC'" font-size="14" lengthAdjust="spacing" textLength="55.9998" x="450" y="707.5057">&#26102;&#38388;&#23383;&#27573;</text><line style="stroke:#181818;stroke-width:0.5;" x1="431" x2="510.9998" y1="715.5376" y2="715.5376"/></g><!--class D3--><g class="entity" data-qualified-name="D3" data-source-line="45" id="ent0006"><rect fill="#F1F1F1" height="108.8157" rx="2.5" ry="2.5" style="stroke:#181818;stroke-width:0.5;" width="125.6036" x="557.2" y="803.5319"/><ellipse cx="572.2" cy="819.5319" fill="#ADD1B2" rx="11" ry="11" style="stroke:#181818;stroke-width:1;"/><path d="M575.1688,825.1725 Q574.5906,825.4694 573.95,825.61 Q573.3094,825.7663 572.6063,825.7663 Q570.1063,825.7663 568.7781,824.1257 Q567.4656,822.4694 567.4656,819.3444 Q567.4656,816.2194 568.7781,814.5632 Q570.1063,812.9069 572.6063,812.9069 Q573.3094,812.9069 573.95,813.0632 Q574.6063,813.2194 575.1688,813.5163 L575.1688,816.235 Q574.5438,815.6569 573.95,815.3913 Q573.3563,815.11 572.7313,815.11 Q571.3875,815.11 570.7,816.1882 Q570.0125,817.2507 570.0125,819.3444 Q570.0125,821.4382 570.7,822.5163 Q571.3875,823.5788 572.7313,823.5788 Q573.3563,823.5788 573.95,823.3132 Q574.5438,823.0319 575.1688,822.4538 L575.1688,825.1725 Z " fill="#000000"/><text fill="#000000" font-family="'Noto Sans CJK SC'" font-size="14" lengthAdjust="spacing" textLength="93.6036" x="586.2" y="825.6359">study_records</text><line style="stroke:#181818;stroke-width:0.5;" x1="558.2" x2="681.8036" y1="835.5319" y2="835.5319"/><g data-visibility-modifier="PUBLIC_FIELD"><ellipse cx="568.2" cy="851.1679" fill="none" rx="3" ry="3" style="stroke:#038048;stroke-width:1;"/></g><text fill="#000000" font-family="'Noto Sans CJK SC'" font-size="14" lengthAdjust="spacing" textLength="12.53" x="577.2" y="855.7718">id</text><g data-visibility-modifier="PUBLIC_FIELD"><ellipse cx="568.2" cy="871.4398" fill="none" rx="3" ry="3" style="stroke:#038048;stroke-width:1;"/></g><text fill="#000000" font-family="'Noto Sans CJK SC'" font-size="14" lengthAdjust="spacing" textLength="55.9998" x="577.2" y="876.0438">&#19994;&#21153;&#23383;&#27573;</text><g data-visibility-modifier="PUBLIC_FIELD"><ellipse cx="568.2" cy="891.7117" fill="none" rx="3" ry="3" style="stroke:#038048;stroke-width:1;"/></g><text fill="#000000" font-family="'Noto Sans CJK SC'" font-size="14" lengthAdjust="spacing" textLength="55.9998" x="577.2" y="896.3157">&#26102;&#38388;&#23383;&#27573;</text><line style="stroke:#181818;stroke-width:0.5;" x1="558.2" x2="681.8036" y1="904.3476" y2="904.3476"/></g><!--link Req to D0--><g class="link" data-entity-1="ent0001" data-entity-2="ent0003" data-link-type="dependency" data-source-line="50" id="lnk7"><path codeLine="50" d="M476.54,134.5619 C438.59,149.0719 393.92,167.4919 355,187.0919 C310.19,209.6619 265.82,237.5032 232.49,259.5532" fill="none" id="Req-to-D0" style="stroke:#3C5488;stroke-width:1;"/><polygon fill="#3C5488" points="228.32,262.3119,238.0331,260.6822,232.49,259.5532,233.6191,254.0101,228.32,262.3119" style="stroke:#3C5488;stroke-width:1;stroke-linejoin:miter;stroke-miterlimit:10;"/><text fill="#000000" font-family="'Noto Sans CJK SC'" font-size="13" lengthAdjust="spacing" textLength="102.4531" x="356" y="203.1719">/api/admin/stats</text></g><!--link Req to D1--><g class="link" data-entity-1="ent0001" data-entity-2="ent0004" data-link-type="dependency" data-source-line="51" id="lnk8"><path codeLine="51" d="M541.47,157.5819 C532.05,181.7619 521.1,210.7219 512,237.0919 C487.91,306.9219 506.48,336.1919 463,395.9019 C444.81,420.8919 421.0934,438.5332 396.8034,452.7732" fill="none" id="Req-to-D1" style="stroke:#3C5488;stroke-width:1;"/><polygon fill="#3C5488" points="392.49,455.3019,402.2771,454.2009,396.8034,452.7732,398.2312,447.2995,392.49,455.3019" style="stroke:#3C5488;stroke-width:1;stroke-linejoin:miter;stroke-miterlimit:10;"/><text fill="#000000" font-family="'Noto Sans CJK SC'" font-size="13" lengthAdjust="spacing" textLength="102.4531" x="513" y="297.5719">/api/admin/stats</text></g><!--link Req to D2--><g class="link" data-entity-1="ent0001" data-entity-2="ent0005" data-link-type="dependency" data-source-line="52" id="lnk9"><path codeLine="52" d="M591.9,157.5519 C603.04,181.2419 614.42,209.8219 620,237.0919 C627.75,274.9319 639.53,551.4019 620,584.7219 C596.99,623.9819 552.7587,644.6074 517.2187,656.0674" fill="none" id="Req-to-D2" style="stroke:#3C5488;stroke-width:1;"/><polygon fill="#3C5488" points="512.46,657.6019,522.2533,658.6468,517.2187,656.0674,519.7981,651.0329,512.46,657.6019" style="stroke:#3C5488;stroke-width:1;stroke-linejoin:miter;stroke-miterlimit:10;"/><text fill="#000000" font-family="'Noto Sans CJK SC'" font-size="13" lengthAdjust="spacing" textLength="102.4531" x="630" y="391.9819">/api/admin/stats</text></g><!--link Req to D3--><g class="link" data-entity-1="ent0001" data-entity-2="ent0006" data-link-type="dependency" data-source-line="53" id="lnk10"><path codeLine="53" d="M649.47,141.2019 C705.84,172.1319 769,222.0619 769,290.4919 C769,290.4919 769,290.4919 769,670.1319 C769,717.1119 773.52,734.7419 747,773.5319 C731.15,796.7319 710.8295,812.5609 687.4595,826.0609" fill="none" id="Req-to-D3" style="stroke:#3C5488;stroke-width:1;"/><polygon fill="#3C5488" points="683.13,828.5619,692.924,827.5237,687.4595,826.0609,688.9224,820.5964,683.13,828.5619" style="stroke:#3C5488;stroke-width:1;stroke-linejoin:miter;stroke-miterlimit:10;"/><text fill="#000000" font-family="'Noto Sans CJK SC'" font-size="13" lengthAdjust="spacing" textLength="102.4531" x="770" y="486.3919">/api/admin/stats</text></g><!--link D0 to D1--><g class="link" data-entity-1="ent0003" data-entity-2="ent0004" data-link-type="dependency" data-source-line="54" id="lnk11"><path codeLine="54" d="M174.45,346.1719 C173.27,363.1219 175.11,381.2419 184,395.9019 C208.04,435.5419 252.9687,455.8023 290.6387,467.0423" fill="none" id="D0-to-D1" style="stroke:#3C5488;stroke-width:1;"/><polygon fill="#3C5488" points="295.43,468.4719,287.9494,462.0656,290.6387,467.0423,285.662,469.7316,295.43,468.4719" style="stroke:#3C5488;stroke-width:1;stroke-linejoin:miter;stroke-miterlimit:10;"/><text fill="#000000" font-family="'Noto Sans CJK SC'" font-size="13" lengthAdjust="spacing" textLength="273.0003" x="185" y="391.9819">&#23398;&#29983;&#25968;&#12289;&#39064;&#30446;&#25968;&#12289;&#35797;&#21367;&#25968;&#12289;&#35760;&#24405;&#25968;&#21644;&#24179;&#22343;&#20998;&#32479;&#35745;</text></g><!--link D1 to D2--><g class="link" data-entity-1="ent0004" data-entity-2="ent0005" data-link-type="dependency" data-source-line="55" id="lnk12"><path codeLine="55" d="M332.21,535.0719 C331.14,551.8419 332.86,569.8319 341,584.7219 C359.71,618.9619 394.5403,639.2851 425.1003,652.1251" fill="none" id="D1-to-D2" style="stroke:#3C5488;stroke-width:1;"/><polygon fill="#3C5488" points="429.71,654.0619,422.962,646.888,425.1003,652.1251,419.8632,654.2634,429.71,654.0619" style="stroke:#3C5488;stroke-width:1;stroke-linejoin:miter;stroke-miterlimit:10;"/><text fill="#000000" font-family="'Noto Sans CJK SC'" font-size="13" lengthAdjust="spacing" textLength="273.0003" x="342" y="580.8019">&#23398;&#29983;&#25968;&#12289;&#39064;&#30446;&#25968;&#12289;&#35797;&#21367;&#25968;&#12289;&#35760;&#24405;&#25968;&#21644;&#24179;&#22343;&#20998;&#32479;&#35745;</text></g><!--link D2 to D3--><g class="link" data-entity-1="ent0005" data-entity-2="ent0006" data-link-type="dependency" data-source-line="56" id="lnk13"><path codeLine="56" d="M458.62,723.9619 C457.48,740.8319 459.31,758.8519 468,773.5319 C487.24,806.0419 519.4878,824.9153 552.1078,837.5553" fill="none" id="D2-to-D3" style="stroke:#3C5488;stroke-width:1;"/><polygon fill="#3C5488" points="556.77,839.3619,549.8233,832.3803,552.1078,837.5553,546.9327,839.8399,556.77,839.3619" style="stroke:#3C5488;stroke-width:1;stroke-linejoin:miter;stroke-miterlimit:10;"/><text fill="#000000" font-family="'Noto Sans CJK SC'" font-size="13" lengthAdjust="spacing" textLength="273.0003" x="469" y="769.6119">&#23398;&#29983;&#25968;&#12289;&#39064;&#30446;&#25968;&#12289;&#35797;&#21367;&#25968;&#12289;&#35760;&#24405;&#25968;&#21644;&#24179;&#22343;&#20998;&#32479;&#35745;</text></g><!--link D0 to Res--><g class="link" data-entity-1="ent0003" data-entity-2="ent0002" data-link-type="dependency" data-source-line="57" id="lnk14"><path codeLine="57" d="M145.64,316.0219 C124.79,330.3619 101.53,350.7719 90,375.9019 C82.99,391.1619 81.2302,404.0797 82.1602,420.6697" fill="none" id="D0-to-Res" style="stroke:#3C5488;stroke-width:1;"/><polygon fill="#3C5488" points="82.44,425.6619,85.93,416.4521,82.1602,420.6697,77.9425,416.8999,82.44,425.6619" style="stroke:#3C5488;stroke-width:1;stroke-linejoin:miter;stroke-miterlimit:10;"/><text fill="#000000" font-family="'Noto Sans CJK SC'" font-size="13" lengthAdjust="spacing" textLength="52.0001" x="91" y="391.9819">&#32452;&#35013;&#36820;&#22238;</text></g><?plantuml-src fPHRRn915CVV-HGJ-cWQRZNGFfW8THClQOp4PpFT7UYaiBFT6IJ4c6XjwoLYguMW8AtKr6WYbmQrjaJxOMHsbs_XBajW5GeXVTZTi_d_ps_EcJaPXba2WKxvWE-yxdpvgfKFZSEpzcbHpx_ZrKzwRbylRcX7purwLMyzQPzyu2TDljtWEw_CjzxQDseLxNE5bmjQlg5bQtopgJTRlFJRHLUnh40L9e64OZ2LO0AHsH9C8k1U8eo0A9GfYDou2Q8HjyDCLw14qbYEWnXCKEHGbg6u6bT9IfOY945Ka5x1pAbVLLMIjgMPGEJoN2Za54L6r31H9QIEjLX5zWm-do_a3peCToaI8KN_KBpUe3_i7s7whzWP8II41S5XZ92aGcGai_6yWMqYSH4ok3nSuForO62KQuWt9mZ2lCCPHMif98le5ewPZup6Rzzjg38iOWLEwiXfdDYJUIZuFcQPySY-wnoUIqn0Ie5xU6gD-h5sjCwtrytnTGD8mHsq1Xwu0BYKeaYzBbcHkGjgnWeKc4aGABaUdi_Zkrb-cjDRkzhU-nwFsZoHICZw9X6bCDuD9VCe1Z1hGThDMVJQARYxVFjdaR-ey6f1gtst_hN2ZqxXM--_dsqMIHacSe_WcvwWGALVW7_wTCfIKkQUYaJpf7gKm1GKQzzdPwzOlIy03rIm1qf9B7ieWumELDzOrJzM3OnIpVNwOFk-CoVXpwF7dOEtUgbcnqOzpxF7lRZMuB_oPipVlBIkml9J_cpBdW2N2UcNSM6MVr3qXLbsZzOeBW2zjM5yt3JEShoqznS0?></g></svg>