<svg xmlns="http://www.w3.org/2000/svg" xmlns:xlink="http://www.w3.org/1999/xlink" contentStyleType="text/css" data-diagram-type="ACTIVITY" height="1161px" preserveAspectRatio="none" style="width:372px;height:1161px;background:#FFFFFF;" version="1.1" viewBox="0 0 372 1161" width="372px" zoomAndPan="magnify"><?plantuml 1.2026.5?><defs/><g><ellipse cx="169.0009" cy="25" fill="#222222" rx="10" ry="10" style="stroke:#222222;stroke-width:1;"/><rect fill="#FFFFFF" height="37.3761" rx="12.5" ry="12.5" style="stroke:#000000;stroke-width:0.5;" width="152.001" x="93.0004" y="55"/><text fill="#000000" font-family="'Noto Sans CJK SC'" font-size="12" lengthAdjust="spacing" textLength="132.001" x="103.0004" y="78.9201">&#23398;&#29983;&#30331;&#24405;&#65292;&#36827;&#20837;&#32451;&#20064;&#21015;&#34920;</text><rect fill="#FFFFFF" height="54.7522" rx="12.5" ry="12.5" style="stroke:#000000;stroke-width:0.5;" width="188.0013" x="75.0003" y="112.3761"/><text fill="#000000" font-family="'Noto Sans CJK SC'" font-size="12" lengthAdjust="spacing" textLength="168.0013" x="85.0003" y="136.2962">&#25353;&#24403;&#21069;&#30028;&#38754;&#35821;&#35328;&#35835;&#21462;&#24050;&#21457;&#24067;&#35797;&#21367;</text><text fill="#000000" font-family="'Noto Sans CJK SC'" font-size="12" lengthAdjust="spacing" textLength="144.0011" x="85.0003" y="153.6723">&#65288;&#31561;&#32423;&#12289;&#39064;&#30446;&#25968;&#37327;&#12289;&#24635;&#20998;&#65289;</text><rect fill="#FFFFFF" height="54.7522" rx="12.5" ry="12.5" style="stroke:#000000;stroke-width:0.5;" width="152.001" x="93.0004" y="187.1284"/><text fill="#000000" font-family="'Noto Sans CJK SC'" font-size="12" lengthAdjust="spacing" textLength="132.001" x="103.0004" y="211.0485">&#36827;&#20837;&#35797;&#21367;&#35814;&#24773;&#65292;&#36880;&#39064;&#26597;&#30475;</text><text fill="#000000" font-family="'Noto Sans CJK SC'" font-size="12" lengthAdjust="spacing" textLength="132.001" x="103.0004" y="228.4246">&#39064;&#24178;&#12289;&#36873;&#39033;&#12289;&#20998;&#31867;&#12289;&#38590;&#24230;</text><rect fill="#FFFFFF" height="37.3761" rx="12.5" ry="12.5" style="stroke:#000000;stroke-width:0.5;" width="104.0006" x="117.0006" y="261.8806"/><text fill="#000000" font-family="'Noto Sans CJK SC'" font-size="12" lengthAdjust="spacing" textLength="84.0006" x="127.0006" y="285.8007">&#36873;&#25321;&#31572;&#26696;&#24182;&#25552;&#20132;</text><rect fill="#FFFFFF" height="37.3761" rx="12.5" ry="12.5" style="stroke:#000000;stroke-width:0.5;" width="176.0012" x="81.0003" y="369.2207"/><text fill="#000000" font-family="'Noto Sans CJK SC'" font-size="12" lengthAdjust="spacing" textLength="156.0012" x="91.0003" y="393.1408">&#25552;&#31034;&#26410;&#20316;&#31572;&#39064;&#30446;&#65292;&#20572;&#30041;&#24403;&#21069;&#39029;</text><ellipse cx="169.0009" cy="444.4087" fill="none" rx="11" ry="11" style="stroke:#222222;stroke-width:1;"/><ellipse cx="169.0009" cy="444.4087" fill="#222222" rx="6" ry="6" style="stroke:#222222;stroke-width:1;"/><polygon fill="#FFFFFF" points="109.0005,319.2567,229.0014,319.2567,241.0014,331.2567,229.0014,343.2567,109.0005,343.2567,97.0005,331.2567,109.0005,319.2567" style="stroke:#000000;stroke-width:0.5;stroke-linejoin:miter;stroke-miterlimit:10;"/><text fill="#000000" font-family="'Noto Sans CJK SC'" font-size="11" lengthAdjust="spacing" textLength="10.9999" x="173.0009" y="356.0166">&#21542;</text><text fill="#000000" font-family="'Noto Sans CJK SC'" font-size="12" lengthAdjust="spacing" textLength="120.0009" x="109.0005" y="336.4888">&#26159;&#21542;&#24050;&#20316;&#31572;&#20840;&#37096;&#39064;&#30446;&#65311;</text><text fill="#000000" font-family="'Noto Sans CJK SC'" font-size="11" lengthAdjust="spacing" textLength="10.9999" x="241.0014" y="328.0888">&#26159;</text><rect fill="#FFFFFF" height="37.3761" rx="12.5" ry="12.5" style="stroke:#000000;stroke-width:0.5;" width="104.0006" x="117.0006" y="497.4087"/><text fill="#000000" font-family="'Noto Sans CJK SC'" font-size="12" lengthAdjust="spacing" textLength="84.0006" x="127.0006" y="521.3288">&#24320;&#21551;&#25968;&#25454;&#24211;&#20107;&#21153;</text><polygon fill="#FFFFFF" points="109.0005,554.7849,229.0014,554.7849,241.0014,566.7849,229.0014,578.7849,109.0005,578.7849,97.0005,566.7849,109.0005,554.7849" style="stroke:#000000;stroke-width:0.5;stroke-linejoin:miter;stroke-miterlimit:10;"/><text fill="#000000" font-family="'Noto Sans CJK SC'" font-size="12" lengthAdjust="spacing" textLength="120.0009" x="109.0005" y="572.0169">&#31572;&#26696;&#19982;&#27491;&#30830;&#36873;&#39033;&#19968;&#33268;&#65311;</text><text fill="#000000" font-family="'Noto Sans CJK SC'" font-size="11" lengthAdjust="spacing" textLength="10.9999" x="86.0006" y="563.6169">&#26159;</text><text fill="#000000" font-family="'Noto Sans CJK SC'" font-size="11" lengthAdjust="spacing" textLength="10.9999" x="241.0014" y="563.6169">&#21542;</text><rect fill="#FFFFFF" height="37.3761" rx="12.5" ry="12.5" style="stroke:#000000;stroke-width:0.5;" width="74.6964" x="49.6523" y="588.7849"/><text fill="#000000" font-family="'Noto Sans CJK SC'" font-size="12" lengthAdjust="spacing" textLength="54.6964" x="59.6523" y="612.7049">&#27491;&#30830;&#25968; + 1</text><rect fill="#FFFFFF" height="37.3761" rx="12.5" ry="12.5" style="stroke:#000000;stroke-width:0.5;" width="74.6964" x="213.6532" y="588.7849"/><text fill="#000000" font-family="'Noto Sans CJK SC'" font-size="12" lengthAdjust="spacing" textLength="54.6964" x="223.6532" y="612.7049">&#38169;&#35823;&#25968; + 1</text><rect fill="#FFFFFF" height="54.7522" rx="12.5" ry="12.5" style="stroke:#000000;stroke-width:0.5;" width="180.0572" x="160.9728" y="646.161"/><text fill="#000000" font-family="'Noto Sans CJK SC'" font-size="12" lengthAdjust="spacing" textLength="160.0572" x="170.9728" y="670.0811">&#20889;&#20837;&#38169;&#39064;&#26412; wrong_questions</text><text fill="#000000" font-family="'Noto Sans CJK SC'" font-size="12" lengthAdjust="spacing" textLength="96.0007" x="170.9728" y="687.4572">&#65288;&#38169;&#35823;&#27425;&#25968;&#32047;&#21152;&#65289;</text><polygon fill="#FFFFFF" points="169.0009,706.9132,181.0009,718.9132,169.0009,730.9132,157.0009,718.9132,169.0009,706.9132" style="stroke:#000000;stroke-width:0.5;stroke-linejoin:miter;stroke-miterlimit:10;"/><rect fill="#FFFFFF" height="54.7522" rx="12.5" ry="12.5" style="stroke:#000000;stroke-width:0.5;" width="174.9211" x="81.5404" y="750.9132"/><text fill="#000000" font-family="'Noto Sans CJK SC'" font-size="12" lengthAdjust="spacing" textLength="154.9211" x="91.5404" y="774.8333">&#20889;&#20837;&#23398;&#20064;&#35760;&#24405; study_records</text><text fill="#000000" font-family="'Noto Sans CJK SC'" font-size="12" lengthAdjust="spacing" textLength="144.0011" x="91.5404" y="792.2094">&#65288;&#24471;&#20998;&#12289;&#27491;&#30830;&#25968;&#12289;&#38169;&#35823;&#25968;&#65289;</text><rect fill="#FFFFFF" height="37.3761" rx="12.5" ry="12.5" style="stroke:#000000;stroke-width:0.5;" width="171.8371" x="83.0824" y="825.6655"/><text fill="#000000" font-family="'Noto Sans CJK SC'" font-size="12" lengthAdjust="spacing" textLength="151.8371" x="93.0824" y="849.5856">&#20889;&#20837;&#29992;&#25143;&#31572;&#26696; user_answers</text><polygon fill="#FFFFFF" points="103.0004,883.0416,235.0014,883.0416,247.0014,895.0416,235.0014,907.0416,103.0004,907.0416,91.0004,895.0416,103.0004,883.0416" style="stroke:#000000;stroke-width:0.5;stroke-linejoin:miter;stroke-miterlimit:10;"/><text fill="#000000" font-family="'Noto Sans CJK SC'" font-size="12" lengthAdjust="spacing" textLength="132.001" x="103.0004" y="900.2736">&#19977;&#34920;&#20889;&#20837;&#26159;&#21542;&#20840;&#37096;&#25104;&#21151;&#65311;</text><text fill="#000000" font-family="'Noto Sans CJK SC'" font-size="11" lengthAdjust="spacing" textLength="10.9999" x="80.0005" y="891.8736">&#26159;</text><text fill="#000000" font-family="'Noto Sans CJK SC'" font-size="11" lengthAdjust="spacing" textLength="10.9999" x="247.0014" y="891.8736">&#21542;</text><rect fill="#FFFFFF" height="37.3761" rx="12.5" ry="12.5" style="stroke:#000000;stroke-width:0.5;" width="68.0004" x="46.0002" y="917.0416"/><text fill="#000000" font-family="'Noto Sans CJK SC'" font-size="12" lengthAdjust="spacing" textLength="48.0004" x="56.0002" y="940.9617">&#25552;&#20132;&#20107;&#21153;</text><rect fill="#FFFFFF" height="37.3761" rx="12.5" ry="12.5" style="stroke:#000000;stroke-width:0.5;" width="128.0008" x="16" y="974.4177"/><text fill="#000000" font-family="'Noto Sans CJK SC'" font-size="12" lengthAdjust="spacing" textLength="108.0008" x="26" y="998.3378">&#36820;&#22238;&#24471;&#20998;&#19982;&#31572;&#39064;&#32467;&#26524;</text><rect fill="#FFFFFF" height="37.3761" rx="12.5" ry="12.5" style="stroke:#000000;stroke-width:0.5;" width="104.0006" x="28.0001" y="1031.7938"/><text fill="#000000" font-family="'Noto Sans CJK SC'" font-size="12" lengthAdjust="spacing" textLength="84.0006" x="38.0001" y="1055.7139">&#21069;&#31471;&#23637;&#31034;&#25104;&#32489;&#39029;</text><rect fill="#FFFFFF" height="37.3761" rx="12.5" ry="12.5" style="stroke:#000000;stroke-width:0.5;" width="68.0004" x="224.0013" y="917.0416"/><text fill="#000000" font-family="'Noto Sans CJK SC'" font-size="12" lengthAdjust="spacing" textLength="48.0004" x="234.0013" y="940.9617">&#22238;&#28378;&#20107;&#21153;</text><rect fill="#FFFFFF" height="37.3761" rx="12.5" ry="12.5" style="stroke:#000000;stroke-width:0.5;" width="188.0013" x="164.0008" y="974.4177"/><text fill="#000000" font-family="'Noto Sans CJK SC'" font-size="12" lengthAdjust="spacing" textLength="168.0013" x="174.0008" y="998.3378">&#36820;&#22238;&#38169;&#35823;&#25552;&#31034;&#65292;&#19981;&#20135;&#29983;&#21322;&#20221;&#25104;&#32489;</text><polygon fill="#FFFFFF" points="169.0009,1075.1699,181.0009,1087.1699,169.0009,1099.1699,157.0009,1087.1699,169.0009,1075.1699" style="stroke:#000000;stroke-width:0.5;stroke-linejoin:miter;stroke-miterlimit:10;"/><ellipse cx="169.0009" cy="1130.1699" fill="none" rx="11" ry="11" style="stroke:#222222;stroke-width:1;"/><ellipse cx="169.0009" cy="1130.1699" fill="#222222" rx="6" ry="6" style="stroke:#222222;stroke-width:1;"/><line style="stroke:#181818;stroke-width:1;" x1="169.0009" x2="169.0009" y1="35" y2="55"/><polygon fill="#181818" points="165.0009,45,169.0009,55,173.0009,45,169.0009,49" style="stroke:#181818;stroke-width:1;stroke-linejoin:miter;stroke-miterlimit:10;"/><line style="stroke:#181818;stroke-width:1;" x1="169.0009" x2="169.0009" y1="92.3761" y2="112.3761"/><polygon fill="#181818" points="165.0009,102.3761,169.0009,112.3761,173.0009,102.3761,169.0009,106.3761" style="stroke:#181818;stroke-width:1;stroke-linejoin:miter;stroke-miterlimit:10;"/><line style="stroke:#181818;stroke-width:1;" x1="169.0009" x2="169.0009" y1="167.1284" y2="187.1284"/><polygon fill="#181818" points="165.0009,177.1284,169.0009,187.1284,173.0009,177.1284,169.0009,181.1284" style="stroke:#181818;stroke-width:1;stroke-linejoin:miter;stroke-miterlimit:10;"/><line style="stroke:#181818;stroke-width:1;" x1="169.0009" x2="169.0009" y1="241.8806" y2="261.8806"/><polygon fill="#181818" points="165.0009,251.8806,169.0009,261.8806,173.0009,251.8806,169.0009,255.8806" style="stroke:#181818;stroke-width:1;stroke-linejoin:miter;stroke-miterlimit:10;"/><line style="stroke:#181818;stroke-width:1;" x1="169.0009" x2="169.0009" y1="406.5968" y2="433.4087"/><polygon fill="#181818" points="165.0009,423.4087,169.0009,433.4087,173.0009,423.4087,169.0009,427.4087" style="stroke:#181818;stroke-width:1;stroke-linejoin:miter;stroke-miterlimit:10;"/><line style="stroke:#181818;stroke-width:1;" x1="169.0009" x2="169.0009" y1="343.2567" y2="369.2207"/><polygon fill="#181818" points="165.0009,359.2207,169.0009,369.2207,173.0009,359.2207,169.0009,363.2207" style="stroke:#181818;stroke-width:1;stroke-linejoin:miter;stroke-miterlimit:10;"/><line style="stroke:#181818;stroke-width:1;" x1="241.0014" x2="267.0015" y1="331.2567" y2="331.2567"/><polygon fill="#181818" points="263.0015,403.4087,267.0015,413.4087,271.0015,403.4087,267.0015,407.4087" style="stroke:#181818;stroke-width:1;stroke-linejoin:miter;stroke-miterlimit:10;"/><line style="stroke:#181818;stroke-width:1;" x1="267.0015" x2="267.0015" y1="331.2567" y2="477.4087"/><line style="stroke:#181818;stroke-width:1;" x1="267.0015" x2="169.0009" y1="477.4087" y2="477.4087"/><line style="stroke:#181818;stroke-width:1;" x1="169.0009" x2="169.0009" y1="477.4087" y2="497.4087"/><polygon fill="#181818" points="165.0009,487.4087,169.0009,497.4087,173.0009,487.4087,169.0009,491.4087" style="stroke:#181818;stroke-width:1;stroke-linejoin:miter;stroke-miterlimit:10;"/><line style="stroke:#181818;stroke-width:1;" x1="169.0009" x2="169.0009" y1="299.2567" y2="319.2567"/><polygon fill="#181818" points="165.0009,309.2567,169.0009,319.2567,173.0009,309.2567,169.0009,313.2567" style="stroke:#181818;stroke-width:1;stroke-linejoin:miter;stroke-miterlimit:10;"/><line style="stroke:#181818;stroke-width:1;" x1="251.0014" x2="251.0014" y1="626.161" y2="646.161"/><polygon fill="#181818" points="247.0014,636.161,251.0014,646.161,255.0014,636.161,251.0014,640.161" style="stroke:#181818;stroke-width:1;stroke-linejoin:miter;stroke-miterlimit:10;"/><line style="stroke:#181818;stroke-width:1;" x1="97.0005" x2="87.0005" y1="566.7849" y2="566.7849"/><line style="stroke:#181818;stroke-width:1;" x1="87.0005" x2="87.0005" y1="566.7849" y2="588.7849"/><polygon fill="#181818" points="83.0005,578.7849,87.0005,588.7849,91.0005,578.7849,87.0005,582.7849" style="stroke:#181818;stroke-width:1;stroke-linejoin:miter;stroke-miterlimit:10;"/><line style="stroke:#181818;stroke-width:1;" x1="241.0014" x2="251.0014" y1="566.7849" y2="566.7849"/><line style="stroke:#181818;stroke-width:1;" x1="251.0014" x2="251.0014" y1="566.7849" y2="588.7849"/><polygon fill="#181818" points="247.0014,578.7849,251.0014,588.7849,255.0014,578.7849,251.0014,582.7849" style="stroke:#181818;stroke-width:1;stroke-linejoin:miter;stroke-miterlimit:10;"/><line style="stroke:#181818;stroke-width:1;" x1="87.0005" x2="87.0005" y1="626.161" y2="718.9132"/><line style="stroke:#181818;stroke-width:1;" x1="87.0005" x2="157.0009" y1="718.9132" y2="718.9132"/><polygon fill="#181818" points="147.0009,714.9132,157.0009,718.9132,147.0009,722.9132,151.0009,718.9132" style="stroke:#181818;stroke-width:1;stroke-linejoin:miter;stroke-miterlimit:10;"/><line style="stroke:#181818;stroke-width:1;" x1="251.0014" x2="251.0014" y1="700.9132" y2="718.9132"/><line style="stroke:#181818;stroke-width:1;" x1="251.0014" x2="181.0009" y1="718.9132" y2="718.9132"/><polygon fill="#181818" points="191.0009,714.9132,181.0009,718.9132,191.0009,722.9132,187.0009,718.9132" style="stroke:#181818;stroke-width:1;stroke-linejoin:miter;stroke-miterlimit:10;"/><line style="stroke:#181818;stroke-width:1;" x1="169.0009" x2="169.0009" y1="534.7849" y2="554.7849"/><polygon fill="#181818" points="165.0009,544.7849,169.0009,554.7849,173.0009,544.7849,169.0009,548.7849" style="stroke:#181818;stroke-width:1;stroke-linejoin:miter;stroke-miterlimit:10;"/><line style="stroke:#181818;stroke-width:1;" x1="169.0009" x2="169.0009" y1="730.9132" y2="750.9132"/><polygon fill="#181818" points="165.0009,740.9132,169.0009,750.9132,173.0009,740.9132,169.0009,744.9132" style="stroke:#181818;stroke-width:1;stroke-linejoin:miter;stroke-miterlimit:10;"/><line style="stroke:#181818;stroke-width:1;" x1="169.0009" x2="169.0009" y1="805.6655" y2="825.6655"/><polygon fill="#181818" points="165.0009,815.6655,169.0009,825.6655,173.0009,815.6655,169.0009,819.6655" style="stroke:#181818;stroke-width:1;stroke-linejoin:miter;stroke-miterlimit:10;"/><line style="stroke:#181818;stroke-width:1;" x1="80.0004" x2="80.0004" y1="954.4177" y2="974.4177"/><polygon fill="#181818" points="76.0004,964.4177,80.0004,974.4177,84.0004,964.4177,80.0004,968.4177" style="stroke:#181818;stroke-width:1;stroke-linejoin:miter;stroke-miterlimit:10;"/><line style="stroke:#181818;stroke-width:1;" x1="80.0004" x2="80.0004" y1="1011.7938" y2="1031.7938"/><polygon fill="#181818" points="76.0004,1021.7938,80.0004,1031.7938,84.0004,1021.7938,80.0004,1025.7938" style="stroke:#181818;stroke-width:1;stroke-linejoin:miter;stroke-miterlimit:10;"/><line style="stroke:#181818;stroke-width:1;" x1="258.0015" x2="258.0015" y1="954.4177" y2="974.4177"/><polygon fill="#181818" points="254.0015,964.4177,258.0015,974.4177,262.0015,964.4177,258.0015,968.4177" style="stroke:#181818;stroke-width:1;stroke-linejoin:miter;stroke-miterlimit:10;"/><line style="stroke:#181818;stroke-width:1;" x1="91.0004" x2="80.0004" y1="895.0416" y2="895.0416"/><line style="stroke:#181818;stroke-width:1;" x1="80.0004" x2="80.0004" y1="895.0416" y2="917.0416"/><polygon fill="#181818" points="76.0004,907.0416,80.0004,917.0416,84.0004,907.0416,80.0004,911.0416" style="stroke:#181818;stroke-width:1;stroke-linejoin:miter;stroke-miterlimit:10;"/><line style="stroke:#181818;stroke-width:1;" x1="247.0014" x2="258.0015" y1="895.0416" y2="895.0416"/><line style="stroke:#181818;stroke-width:1;" x1="258.0015" x2="258.0015" y1="895.0416" y2="917.0416"/><polygon fill="#181818" points="254.0015,907.0416,258.0015,917.0416,262.0015,907.0416,258.0015,911.0416" style="stroke:#181818;stroke-width:1;stroke-linejoin:miter;stroke-miterlimit:10;"/><line style="stroke:#181818;stroke-width:1;" x1="80.0004" x2="80.0004" y1="1069.1699" y2="1087.1699"/><line style="stroke:#181818;stroke-width:1;" x1="80.0004" x2="157.0009" y1="1087.1699" y2="1087.1699"/><polygon fill="#181818" points="147.0009,1083.1699,157.0009,1087.1699,147.0009,1091.1699,151.0009,1087.1699" style="stroke:#181818;stroke-width:1;stroke-linejoin:miter;stroke-miterlimit:10;"/><line style="stroke:#181818;stroke-width:1;" x1="258.0015" x2="258.0015" y1="1011.7938" y2="1087.1699"/><line style="stroke:#181818;stroke-width:1;" x1="258.0015" x2="181.0009" y1="1087.1699" y2="1087.1699"/><polygon fill="#181818" points="191.0009,1083.1699,181.0009,1087.1699,191.0009,1091.1699,187.0009,1087.1699" style="stroke:#181818;stroke-width:1;stroke-linejoin:miter;stroke-miterlimit:10;"/><line style="stroke:#181818;stroke-width:1;" x1="169.0009" x2="169.0009" y1="863.0416" y2="883.0416"/><polygon fill="#181818" points="165.0009,873.0416,169.0009,883.0416,173.0009,873.0416,169.0009,877.0416" style="stroke:#181818;stroke-width:1;stroke-linejoin:miter;stroke-miterlimit:10;"/><line style="stroke:#181818;stroke-width:1;" x1="169.0009" x2="169.0009" y1="1099.1699" y2="1119.1699"/><polygon fill="#181818" points="165.0009,1109.1699,169.0009,1119.1699,173.0009,1109.1699,169.0009,1113.1699" style="stroke:#181818;stroke-width:1;stroke-linejoin:miter;stroke-miterlimit:10;"/><?plantuml-src TLFBJjjG4DtxAwxQ1Q1ALQdK3UnAnQALsB15GYunO04sjPqYMbKoHK0I4fAAf3mI7g4GGajYeBGaTWZ_KZpNzYg_qB6lWr8LB2_ikJDdPiuvjuju9wTqvyWzkh7DRIUt1PMIazsZvt7Ng3ZMebtVX_fFI9-HFteMN-9Kijx1fbrRWzWXn9RffGM9CkIRN1S1emvcrgqstMhHDIxfvffTBv4NJtjRZJpBnZAx5dUBPLZUWgKZA9GXaxHhkcskGg88oqjGJT9OvbR_pAbJeZJBA_mCUSkFJKqeSbIA3CZJia8U3mPFHqP46EUZqzgWB6b3_8n07Wt9cao6UKab0w_VaE61Hnt9wYGVaUT4QOACyzEgq772ZsdYUr6R9nyvGbu-q1LFP2KYA67qMV1Wr6y-B7uGIEzp_7ibyZEo57aOf9rm3zOdZbCrNj6uFgQ5isN1TQxLIBetUIGj52MsWJJsStqq6OVhTOYdd5pIspb0rTooxXeMfB_2rGMalq1jqJLoaBeQaLgDc5E9E-RnhRw08ZhvAisTUIjf_AMwXVgq6d64P7rOaMkKwE8IDlVq39RGlIEdi3eYuIVKBtmOFUuLw_Y1rSwvvKUscs2M40QFwEe9-eKMOr3_JTCPsppivpXnd7JJJGCo9HpGlYvW1YoLlSKo6wdLsEiXsgGWaMvCwK6k-h3KEJHfuJlBRkSbOQ7WEpPOtol-wiTSLPDdEG5r3NhqS88K4SSvfBAXGyR0TMcg2kOwCrmu31iHlKahtvnYbQs4hdHNBZk62U3yOO8aH29FI6z_sAizgPVTSWtZxX0ZpEaOzzahd98vHPOcHjz51LKJPKaDH0chJejOw5mQaDWFXBYRdLsMIWbrTwjdQ0PSCngP7rM4CVGFmu3c1ahWAzcUpzUYFGuJbW4vsJADNR6bILGLb56yA7E2eePqTDxGKAT07hoOaDYxZv50sJQb671lif3VPHCXhQ5arZhTBJ1EqAq_33ZF-Qh6Cevr4gZtBvM8GAtj_r33bG97e0NiMiesZ_6MG2fXMzSCxOuwtmr_0G00?></g></svg>